<svg width="31" height="30" viewBox="0 0 31 30" fill="none" xmlns="http://www.w3.org/2000/svg">
<path fill-rule="evenodd" clip-rule="evenodd" d="M8.66667 6.66667C8.66667 4.89856 9.3866 3.20286 10.6681 1.95262C11.9496 0.702379 13.6877 0 15.5 0C17.3123 0 19.0504 0.702379 20.3319 1.95262C21.6134 3.20286 22.3333 4.89856 22.3333 6.66667C22.3333 8.43478 21.6134 10.1305 20.3319 11.3807C19.0504 12.631 17.3123 13.3333 15.5 13.3333C13.6877 13.3333 11.9496 12.631 10.6681 11.3807C9.3866 10.1305 8.66667 8.43478 8.66667 6.66667ZM8.66667 16.6667C6.40128 16.6667 4.22867 17.5446 2.6268 19.1074C1.02492 20.6702 0.125 22.7899 0.125 25C0.125 26.3261 0.664954 27.5979 1.62608 28.5355C2.5872 29.4732 3.89077 30 5.25 30H25.75C27.1092 30 28.4128 29.4732 29.3739 28.5355C30.335 27.5979 30.875 26.3261 30.875 25C30.875 22.7899 29.9751 20.6702 28.3732 19.1074C26.7713 17.5446 24.5987 16.6667 22.3333 16.6667H8.66667Z" fill="black"/>
</svg>
